<?xml version="1.0" encoding="UTF-8"?>
<!DOCTYPE svg PUBLIC "-//W3C//DTD SVG 1.1//EN" "http://www.w3.org/Graphics/SVG/1.1/DTD/svg11.dtd">
<svg xmlns="http://www.w3.org/2000/svg" version="1.1" width="863px" height="225px" style="shape-rendering:geometricPrecision; text-rendering:geometricPrecision; image-rendering:optimizeQuality; fill-rule:evenodd; clip-rule:evenodd" xmlns:xlink="http://www.w3.org/1999/xlink">
<g><path style="opacity:0.983" fill="#0c1c29" d="M 67.5,28.5 C 70.0792,28.0833 72.2458,28.75 74,30.5C 93.8361,77.86 114.336,124.86 135.5,171.5C 127.58,171.815 119.747,171.482 112,170.5C 105.147,152.802 98.3136,135.135 91.5,117.5C 74.1635,117.333 56.8301,117.5 39.5,118C 31.5718,135.357 24.9051,153.191 19.5,171.5C 13.8333,171.5 8.16667,171.5 2.5,171.5C 24.3589,123.925 46.0255,76.258 67.5,28.5 Z M 64.5,58.5 C 72.5772,73.6886 79.9105,89.3553 86.5,105.5C 85.9747,106.192 85.3081,106.692 84.5,107C 73.5,107.667 62.5,107.667 51.5,107C 49.0995,106.814 46.7662,106.314 44.5,105.5C 51.4608,89.9169 58.1275,74.2503 64.5,58.5 Z"/></g>
<g><path style="opacity:0.976" fill="#0c1c2a" d="M 237.5,66.5 C 249.111,67.7939 260.778,67.7939 272.5,66.5C 280.87,66.7595 288.87,68.5928 296.5,72C 305.857,79.7394 309.023,89.5727 306,101.5C 301.366,114.461 292.2,121.961 278.5,124C 269.886,125.297 261.219,125.797 252.5,125.5C 252.724,140.87 253.39,156.204 254.5,171.5C 248.833,171.5 243.167,171.5 237.5,171.5C 238.824,136.5 238.824,101.5 237.5,66.5 Z M 252.5,74.5 C 260.84,74.3336 269.173,74.5003 277.5,75C 287.278,77.5434 291.611,83.8767 290.5,94C 290.175,108.328 282.842,116.328 268.5,118C 263.146,118.529 257.813,118.362 252.5,117.5C 252.5,103.167 252.5,88.8333 252.5,74.5 Z"/></g>
<g><path style="opacity:0.982" fill="#0c1c29" d="M 319.5,66.5 C 337.833,67.8205 356.167,67.8205 374.5,66.5C 375.489,70.1073 375.823,73.774 375.5,77.5C 362.178,76.6379 348.844,75.9712 335.5,75.5C 334.747,87.8186 334.414,100.152 334.5,112.5C 347.183,112.626 359.85,112.293 372.5,111.5C 371.559,115.215 371.226,118.881 371.5,122.5C 359.234,121.07 346.901,120.403 334.5,120.5C 334.5,134.833 334.5,149.167 334.5,163.5C 348.556,163.754 362.556,163.088 376.5,161.5C 376.5,164.833 376.5,168.167 376.5,171.5C 357.5,171.5 338.5,171.5 319.5,171.5C 320.833,136.5 320.833,101.5 319.5,66.5 Z"/></g>
<g><path style="opacity:0.986" fill="#0c1c2a" d="M 141.5,66.5 C 147.814,67.0884 154.147,67.755 160.5,68.5C 167.495,81.8268 174.995,94.8268 183,107.5C 191.667,94.837 199.834,81.837 207.5,68.5C 211.847,67.7782 216.18,67.1115 220.5,66.5C 220.833,66.8333 221.167,67.1667 221.5,67.5C 209.308,82.7166 197.975,98.5499 187.5,115C 199.126,133.756 211.126,152.256 223.5,170.5C 217.193,171.664 210.859,171.831 204.5,171C 196.631,156.089 188.131,141.589 179,127.5C 169.209,141.578 160.042,156.078 151.5,171C 147.129,171.828 142.795,171.661 138.5,170.5C 151.082,154.084 163.082,137.251 174.5,120C 163.353,102.194 152.353,84.3611 141.5,66.5 Z"/></g>
<g><path style="opacity:0.918" fill="#0c1c29" d="M 667.5,122.5 C 670.167,122.5 672.833,122.5 675.5,122.5C 675.5,137.167 675.5,151.833 675.5,166.5C 682.2,166.17 688.866,166.503 695.5,167.5C 694.167,168.5 694.167,169.5 695.5,170.5C 686.19,171.498 676.857,171.832 667.5,171.5C 667.5,155.167 667.5,138.833 667.5,122.5 Z"/></g>
<g><path style="opacity:0.941" fill="#0c1d2a" d="M 691.5,121.5 C 704.137,122.832 716.804,122.832 729.5,121.5C 729.403,123.749 729.57,126.082 730,128.5C 724.928,127.529 719.762,127.195 714.5,127.5C 714.184,141.882 714.517,156.215 715.5,170.5C 712.572,171.484 709.572,171.817 706.5,171.5C 707.436,156.845 707.436,142.178 706.5,127.5C 701.57,127.197 696.737,127.531 692,128.5C 691.503,126.19 691.337,123.857 691.5,121.5 Z"/></g>
<g><path style="opacity:0.983" fill="#0c1c2a" d="M 744.5,121.5 C 744.194,137.634 744.528,153.967 745.5,170.5C 742.572,171.484 739.572,171.817 736.5,171.5C 737.833,155.167 737.833,138.833 736.5,122.5C 739.385,122.806 742.052,122.473 744.5,121.5 Z"/></g>
<g><path style="opacity:0.972" fill="#0c1c29" d="M 427.5,121.5 C 434.241,121.171 440.908,121.671 447.5,123C 452.119,124.642 452.786,127.476 449.5,131.5C 441.477,124.573 432.81,123.74 423.5,129C 416.607,137.05 414.774,146.217 418,156.5C 422.346,166.257 429.846,170.091 440.5,168C 444.363,166.819 447.863,164.986 451,162.5C 451.472,165.448 450.639,167.948 448.5,170C 437.304,174.037 426.638,173.037 416.5,167C 404.607,153.681 404.607,140.348 416.5,127C 420.017,124.674 423.683,122.84 427.5,121.5 Z"/></g>
<g><path style="opacity:0.989" fill="#0c1c29" d="M 520.5,121.5 C 521.552,121.351 522.552,121.517 523.5,122C 534.637,134.138 546.137,145.971 558,157.5C 558.272,145.832 558.105,134.166 557.5,122.5C 559.5,122.5 561.5,122.5 563.5,122.5C 562.427,139.174 562.427,155.841 563.5,172.5C 562.448,172.649 561.448,172.483 560.5,172C 548.972,159.807 537.472,147.64 526,135.5C 525.188,147.213 525.355,158.88 526.5,170.5C 524.257,171.474 521.924,171.808 519.5,171.5C 520.353,154.849 520.687,138.182 520.5,121.5 Z"/></g>
<g><path style="opacity:0.966" fill="#0c1c29" d="M 583.5,121.5 C 588.599,121.175 593.599,121.675 598.5,123C 599.5,123.833 600.5,124.667 601.5,125.5C 600.253,127.323 599.586,129.323 599.5,131.5C 596.813,130.336 594.48,128.503 592.5,126C 583.833,124.337 580,127.837 581,136.5C 585.816,140.78 591.316,143.946 597.5,146C 604.943,152.563 605.443,159.73 599,167.5C 590.919,173.271 582.419,173.937 573.5,169.5C 572.261,166.679 572.595,164.013 574.5,161.5C 576.65,163.149 578.65,164.982 580.5,167C 586.296,169.73 591.13,168.563 595,163.5C 595.741,160.438 595.575,157.438 594.5,154.5C 589.552,151.012 584.219,148.178 578.5,146C 572.204,139.347 571.87,132.347 577.5,125C 579.432,123.541 581.432,122.375 583.5,121.5 Z"/></g>
<g><path style="opacity:0.986" fill="#0c1d2a" d="M 475.5,121.5 C 487.91,119.22 498.41,122.554 507,131.5C 514.371,145.116 512.538,157.283 501.5,168C 490.32,173.56 478.987,173.894 467.5,169C 459.604,163.879 455.604,156.546 455.5,147C 456.101,133.588 462.768,125.088 475.5,121.5 Z M 477.5,125.5 C 497.572,124.756 505.739,134.423 502,154.5C 497.365,167.221 488.531,171.387 475.5,167C 470.6,165.098 467.433,161.598 466,156.5C 462.774,146.217 464.607,137.05 471.5,129C 473.727,128.059 475.727,126.892 477.5,125.5 Z"/></g>
<g><path style="opacity:0.981" fill="#0c1c29" d="M 757.5,121.5 C 758.552,121.351 759.552,121.517 760.5,122C 771.637,134.138 783.137,145.971 795,157.5C 795.695,145.815 795.528,134.148 794.5,122.5C 796.857,122.337 799.19,122.503 801.5,123C 799.429,139.415 799.095,155.915 800.5,172.5C 799.448,172.649 798.448,172.483 797.5,172C 786,159.833 774.5,147.667 763,135.5C 762.229,147.533 762.395,159.533 763.5,171.5C 761.167,171.5 758.833,171.5 756.5,171.5C 757.409,154.854 757.742,138.188 757.5,121.5 Z"/></g>
<g><path style="opacity:0.978" fill="#0c1c29" d="M 830.5,121.5 C 839.739,120.844 848.739,121.844 857.5,124.5C 857.72,127.4 857.054,130.067 855.5,132.5C 847.171,125.08 837.838,123.58 827.5,128C 819.533,135.59 817.033,144.756 820,155.5C 823.668,163.99 830.168,168.324 839.5,168.5C 842.967,168.466 846.3,167.8 849.5,166.5C 850.536,160.141 850.703,153.808 850,147.5C 852.381,148.435 854.881,148.768 857.5,148.5C 858.108,155.948 857.441,163.115 855.5,170C 842.631,174.21 830.297,173.21 818.5,167C 810.972,159.29 808.472,150.123 811,139.5C 814.519,130.143 821.019,124.143 830.5,121.5 Z"/></g>
<g><path style="opacity:1" fill="#0d1c2a" d="M 648.5,121.5 C 650.717,122.369 653.05,122.702 655.5,122.5C 654.847,133.486 654.347,144.486 654,155.5C 651.721,167.273 644.555,172.94 632.5,172.5C 623.508,173.091 617.008,169.424 613,161.5C 611.578,148.561 611.078,135.561 611.5,122.5C 614.167,122.5 616.833,122.5 619.5,122.5C 619.333,134.505 619.5,146.505 620,158.5C 622.136,165.244 626.802,168.244 634,167.5C 641.431,168.073 646.097,164.74 648,157.5C 649.789,145.513 649.955,133.513 648.5,121.5 Z"/></g>
</svg>
